PathFileType	4	(X/Y/Z)	D:\TRACE\spot_10-12-23\spot_arm_motion_2_5-v60.trc
DataRate	CameraRate	NumFrames	NumMarkers	Units	OrigDataRate	OrigDataStartFrame	OrigNumFrames
100.00	100.00	      32	9	mm	100.00	876	      7000
Frame#	Time	front left toe			Front right toe			aft left toe			aft right toe			Arm			FL body			FR body			AL Body			AR Body			
		X1	Y1	Z1	X2	Y2	Z2	X3	Y3	Z3	X4	Y4	Z4	X5	Y5	Z5	X6	Y6	Z6	X7	Y7	Z7	X8	Y8	Z8	X9	Y9	Z9	

876	8.750	-280.81696	16.41620	-17.63427	217.89954	22.15654	-4.32571	-279.66986	70.69485	581.25140	194.16139	70.30154	589.49677	-21.63267	858.92841	-658.32697	-128.57507	547.99646	-81.97032	24.24454	553.25623	-80.80894	-141.33093	609.69873	799.68433	9.22342	608.94550	803.32312	
877	8.760	-280.17874	16.20185	-17.49367	218.92210	22.28502	-4.01331	-279.01697	70.62366	581.08728	194.69856	70.06051	589.34814	-21.57147	852.24054	-658.57135	-128.20518	547.52161	-82.11948	24.26429	553.02521	-81.34396	-140.68864	610.87390	799.57922	9.59651	609.96832	803.37408	
878	8.770	-279.51843	16.09342	-17.36935	219.67764	22.12782	-3.84136	-278.09210	70.24483	581.15387	195.84824	69.72535	589.39771	-21.25278	845.20715	-659.45123	-127.90247	546.94269	-82.24672	24.91047	551.87909	-80.92930	-139.64560	611.43005	799.12567	10.15603	611.02997	803.01691	
879	8.780	-278.40240	15.97862	-17.38529	220.41953	22.43537	-3.69325	-277.09805	69.89710	581.21771	196.72531	69.64461	589.40442	-20.82893	838.70923	-660.11267	-127.34851	545.84631	-82.33257	25.20010	551.06006	-81.47254	-140.01553	613.22388	799.25037	10.73269	612.11945	802.99048	
880	8.790	-277.67450	16.04229	-17.32932	221.39020	22.15176	-3.79720	-276.41681	69.61291	581.28711	197.52470	69.29974	589.42554	-20.27094	832.66382	-660.36218	-127.00070	544.86401	-82.50274	25.70990	549.98932	-81.55640	-139.80832	614.66980	798.58417	11.19617	613.67450	802.90692	
881	8.800	-276.73077	16.17285	-17.21137	222.37769	22.32165	-3.56844	-275.52652	69.17708	581.33612	198.34492	68.91163	589.44818	-19.94595	827.28448	-660.86627	-126.81434	543.70807	-82.54376	25.92916	548.83240	-81.88853	-139.00281	616.14032	798.47949	11.75360	615.20520	802.63641	
882	8.810	-275.75397	16.08024	-16.98423	222.86371	22.34780	-3.72647	-274.60751	68.83984	581.28363	199.41054	68.58376	589.52936	-19.43049	822.58710	-661.35425	-126.21407	542.31165	-82.57825	26.77862	546.93329	-81.31338	-138.38306	617.56372	798.19501	11.83278	616.69171	801.89337	
883	8.820	-274.61160	15.74675	-16.75811	224.06435	22.26093	-3.44889	-273.72903	68.50072	581.17218	200.01649	68.14613	589.38751	-19.07006	818.75629	-661.56580	-125.47775	540.89777	-82.58141	27.09046	546.01025	-81.97274	-137.71259	619.00836	797.83899	12.49147	618.15173	801.60211	
884	8.830	-273.64615	15.60172	-16.61435	224.87901	22.16801	-3.30251	-272.72638	67.95394	581.37720	201.27065	67.65084	589.50494	-18.33697	815.99969	-662.11139	-125.04242	539.23456	-82.67649	27.90231	544.09796	-81.16649	-136.25914	620.02612	797.20990	13.34087	619.62262	801.52448	
885	8.840	-273.20163	15.83234	-16.46781	225.75906	22.19562	-3.22679	-271.71103	67.33345	581.54822	201.99866	67.28860	589.60370	-18.03114	814.10535	-662.44287	-124.34563	537.94958	-82.75858	28.36946	542.90430	-81.56535	-136.59711	621.76477	797.23273	14.13417	620.95068	801.09808	
886	8.850	-271.54434	15.61000	-16.10244	226.71999	22.15803	-3.24270	-270.94321	66.93835	581.72760	203.12589	66.69701	589.61035	-17.66608	813.30621	-662.74048	-123.68513	536.51074	-82.71066	28.65177	541.95313	-82.11641	-136.50133	622.84882	796.84424	14.23533	621.92816	800.80164	
887	8.860	-270.80042	15.77675	-16.04955	227.66423	22.41800	-3.10903	-269.75974	66.20393	581.74286	204.12125	66.35488	589.78583	-17.36013	813.11945	-662.69397	-123.11028	535.57806	-82.93981	29.85138	540.55316	-81.96687	-135.59508	623.72046	796.78894	14.71885	622.93787	800.64514	
888	8.870	-270.07748	16.01047	-15.97204	228.71727	22.65405	-2.75354	-269.05173	65.73832	581.69550	204.81320	65.61052	589.81659	-16.78080	813.39618	-662.83099	-122.38619	534.62695	-83.07668	30.34199	539.86316	-82.19955	-134.98593	624.17969	796.60907	15.30733	623.34137	800.50598	
889	8.880	-268.71970	15.80690	-15.68714	229.68657	22.99146	-2.52596	-268.16296	64.98291	581.75421	206.07567	65.03463	590.08417	-16.22360	814.04480	-662.62451	-121.62264	533.71393	-83.06736	31.20657	539.05518	-82.21371	-134.69464	624.46301	796.41974	15.66437	623.51764	800.00928	
890	8.890	-267.51373	15.76666	-15.38749	230.58328	22.61016	-2.46815	-267.02017	64.28409	582.00983	206.80946	64.41705	590.10150	-15.72129	815.33612	-662.33954	-120.79597	533.07086	-82.97983	32.03086	538.53253	-82.17999	-134.13783	624.34338	796.27179	16.52127	623.49048	800.27972	
891	8.900	-267.10199	16.15222	-15.34194	231.59299	22.88000	-2.18687	-266.11383	63.67488	582.20819	207.91467	63.82719	590.33221	-15.26447	817.11725	-662.01489	-119.77039	532.59991	-82.82988	32.64877	538.18958	-81.93431	-133.74187	624.28333	795.69141	17.10425	623.33795	800.23035	
892	8.910	-265.67197	16.13650	-15.22680	232.60452	22.72474	-2.11899	-264.92474	62.81045	582.49274	209.18663	62.91962	590.68665	-14.87038	819.01154	-661.84674	-119.07162	532.46399	-82.98393	33.73561	537.88159	-81.88137	-133.62595	624.55048	795.99164	18.07579	622.91351	800.23846	
893	8.920	-264.50128	16.09756	-14.82661	233.68379	22.79785	-2.05511	-264.11838	62.19214	582.63501	210.02068	62.33525	590.82758	-14.47381	821.07727	-661.63409	-118.29062	532.58807	-83.04111	34.58852	537.86639	-81.78711	-133.06244	623.91791	796.12195	18.68350	622.46082	800.29193	
894	8.930	-263.99216	16.52673	-14.79228	234.35257	23.01061	-1.87366	-262.99438	61.25039	582.77557	211.15724	61.60126	590.98700	-14.17658	823.24042	-661.44781	-117.49519	532.71777	-83.01950	35.20254	537.91089	-81.75385	-131.17801	622.63666	796.62000	19.52476	621.81531	800.40424	
895	8.940	-262.43781	16.28878	-14.56656	235.85616	23.42804	-1.35545	-261.79626	60.27819	583.23090	212.15984	60.61636	591.33496	-13.64326	825.17004	-661.05786	-116.60058	532.84753	-82.79051	36.34890	537.94324	-81.55247	-131.19496	622.72028	797.10718	20.50005	621.03296	800.60217	
896	8.950	-261.51508	16.41020	-14.26398	236.81253	23.29177	-1.10142	-261.01825	59.65111	583.42401	213.25171	59.92331	591.49817	-13.61898	827.23535	-660.72949	-115.81165	532.94104	-82.64118	36.89707	538.20569	-81.48599	-130.55937	622.11438	797.27600	21.06606	620.48718	800.69159	
897	8.960	-260.74133	16.59273	-13.97930	237.97614	23.34911	-1.01024	-259.72171	58.78623	583.67279	214.40094	59.15038	591.79596	-13.29777	829.05505	-660.44977	-114.96003	533.05829	-82.56001	38.01835	538.38361	-81.24530	-129.47745	621.47089	797.61133	22.42751	619.88904	801.07898	
898	8.970	-259.58817	16.71149	-13.92340	239.03056	23.33694	-0.81462	-258.65955	58.04862	583.89355	215.55438	57.36318	591.38373	-12.95302	830.88263	-660.04169	-114.20605	533.22119	-82.53759	38.54132	538.61267	-81.47803	-127.36556	619.86682	797.41302	23.03254	619.25385	801.07678	
899	8.980	-258.33133	16.58250	-13.59513	239.86494	23.42685	-0.69693	-257.51538	57.11992	584.12646	216.72008	56.74515	591.64551	-12.44892	832.10199	-659.70709	-113.22729	533.44000	-82.19003	39.57664	538.59943	-80.55270	-126.55511	619.38580	797.33783	24.45507	618.64825	801.72687	
900	8.990	-257.60229	16.73357	-13.25860	241.43837	23.42706	-0.53150	-256.59546	56.43623	584.34717	217.69165	55.90757	592.03082	-12.14386	833.43188	-659.50378	-112.45445	533.78973	-81.93150	40.40397	539.14099	-81.26774	-125.66088	618.94232	797.57111	25.23117	618.28357	801.84595	
901	9.000	-255.97281	16.61339	-13.17075	242.10324	23.41504	-0.22508	-255.32582	55.40657	584.63672	218.76913	54.93402	592.35632	-11.50740	834.26727	-659.30652	-111.58804	533.75879	-81.81017	40.96883	539.29028	-81.15396	-124.67289	618.59393	797.77631	26.36750	617.45660	802.06348	
902	9.010	-255.14920	16.95749	-12.91685	243.49278	23.72054	0.24143	-254.08765	54.37843	585.13043	219.69064	53.98199	592.49103	-10.80956	834.94489	-659.12909	-110.56388	533.84735	-81.54977	42.18412	539.34613	-80.92703	-123.84411	618.18750	798.10474	27.45250	616.81433	802.46350	
903	9.020	-254.21236	16.98884	-12.58993	244.43227	24.08803	0.42458	-253.16786	53.51885	585.33771	220.74152	53.16874	592.84979	-9.98751	835.30450	-658.81824	-109.52598	533.95209	-81.27442	43.01516	539.63000	-80.62404	-122.84153	617.48773	798.42786	28.41447	616.28137	802.33679	
904	9.030	-252.84874	17.02003	-12.31745	245.52367	23.73975	0.63200	-252.05704	52.57430	585.57349	221.93208	52.12988	593.19287	-9.40154	835.58661	-658.60144	-108.60168	534.18854	-81.06820	44.03500	539.76703	-80.43906	-120.67651	616.05359	798.64954	29.45952	615.60773	802.84302	
905	9.040	-251.66100	17.14749	-12.19250	246.65642	24.00881	0.67537	-250.94624	51.66407	585.89685	222.92549	51.14061	593.65765	-8.95838	835.65656	-658.46790	-107.59007	534.26251	-80.93244	45.02510	539.69275	-80.23359	-119.33397	615.44849	799.06049	30.69727	614.94427	803.08990	
906	9.050	-250.82182	17.21974	-11.67934	247.73186	23.72441	1.06901	-249.60086	50.48204	586.19348	224.19511	50.02388	593.87897	-8.19709	835.45892	-658.36749	-106.67309	534.19635	-80.67117	46.30482	539.59662	-80.02725	-118.39578	614.77069	799.38098	31.66437	614.35754	803.23932	
907	9.060	-249.66502	17.21150	-11.41521	248.57329	23.92421	1.21024	-248.69229	49.53063	586.50635	225.01244	49.09072	594.10364	-7.26608	835.21674	-658.18463	-105.30151	533.99420	-80.42394	47.29981	539.46417	-79.72189	-117.41254	614.13477	799.63605	32.94175	613.71747	803.67572	
